# xmcd CD database file
#
# Track frame offsets:
#	150
#	28618
#	48665
#	73498
#	107815
#	177019
#	214692
#	239877
#	270924
#	313623
#
# Disc length: 4609 seconds
#
# Revision: 1
# Processed by: cddbd v1.5.2PL0 Copyright (c) Steve Scherf et al.
# Submitted via: CDex 1.51
#
DISCID=9411ff0a
DTITLE=Various Artist - Your Gateway To Russia
DYEAR=2013
DGENRE=Jazz
TTITLE0=Nikolay Moissenko Project - Mr. Grey
TTITLE1=Ivan mirnov - Steppe - Frontier
TTITLE2=Sergey Khutas - On The Summer Wave
TTITLE3=Alexey Kozlov and Dimitiy Ilugdin - Peter Tchaikovsky, Symphony No. 4 in F minor Eric Satie, Gymnopedie No. 1
TTITLE4=Alexey Kruglov and Jaak Soo‰‰r - The Battle
TTITLE5=Alex Rostotsky - A Swan Is Swimming By
TTITLE6=Vladimir Nesterenko - On The Other Hand
TTITLE7=Jazz Philharmonic Orchestra - Desiderata
TTITLE8=Jazznator - Composition # 1
TTITLE9=Alexey Kuznetzov and Felix Lahuti - Alyosha
EXTD=YEAR: 2013
EXTT0=
EXTT1=
EXTT2=
EXTT3=
EXTT4=
EXTT5=
EXTT6=
EXTT7=
EXTT8=
EXTT9=
PLAYORDER=
